PathFileType	4	(X/Y/Z)	Walk6.trc
DataRate	CameraRate	NumFrames	NumMarkers	Units	OrigDataRate	OrigDataStartFrame	OrigNumFrames
200.000000	200.000000	6	60	mm	200.000000	587	752
Frame#	Times		RCAR		LTH3		RTH2		LBHD		LWRU		LCAR		LUA1		LFA1		LElbow		RTB3		RFA1		RToe		RASI		LElbowM		RMT5		RTB2		C7		RLFC		LTH2		RBHD		RPSI		LWRR		RMT1		RWRU		RTB1		LASI		RTB4		STRN		T10		CLAV		RBack		LPSI		RLMAL		RElbow		LTH4		LLFC		RUA1		LTB4		LACR1		LTB3		RCAL		LFHD		RTH3		LCAL		LTB1		LMMAL		RElbowM		RTH1		LTB2		RFHD		RACR1		LMFC		RTH4		RMFC		LLMAL		LMT5		RWRR		LTH1		LToe		LMT1
			X1	Y1	Z1	X2	Y2	Z2	X3	Y3	Z3	X4	Y4	Z4	X5	Y5	Z5	X6	Y6	Z6	X7	Y7	Z7	X8	Y8	Z8	X9	Y9	Z9	X10	Y10	Z10	X11	Y11	Z11	X12	Y12	Z12	X13	Y13	Z13	X14	Y14	Z14	X15	Y15	Z15	X16	Y16	Z16	X17	Y17	Z17	X18	Y18	Z18	X19	Y19	Z19	X20	Y20	Z20	X21	Y21	Z21	X22	Y22	Z22	X23	Y23	Z23	X24	Y24	Z24	X25	Y25	Z25	X26	Y26	Z26	X27	Y27	Z27	X28	Y28	Z28	X29	Y29	Z29	X30	Y30	Z30	X31	Y31	Z31	X32	Y32	Z32	X33	Y33	Z33	X34	Y34	Z34	X35	Y35	Z35	X36	Y36	Z36	X37	Y37	Z37	X38	Y38	Z38	X39	Y39	Z39	X40	Y40	Z40	X41	Y41	Z41	X42	Y42	Z42	X43	Y43	Z43	X44	Y44	Z44	X45	Y45	Z45	X46	Y46	Z46	X47	Y47	Z47	X48	Y48	Z48	X49	Y49	Z49	X50	Y50	Z50	X51	Y51	Z51	X52	Y52	Z52	X53	Y53	Z53	X54	Y54	Z54	X55	Y55	Z55	X56	Y56	Z56	X57	Y57	Z57	X58	Y58	Z58	X59	Y59	Z59	X60	Y60	Z60

587	2.935	212.46	843.55	382.41	169.46	614.71	-136.57	205.16	719.22	204.11	58.335	1644.4	-24.792	126.5	871.15	-238.04	202.29	841.04	-248.15	65.764	1301.2	-218.65	79.228	997.3	-251.88	42.465	1145.5	-244.86	147.23	188.42	127.99	101.09	993.85	368.64	284.74	31.142	157.89	160.09	1046.5	192.38	11.88	1133.5	-173.55	176.47	25.445	208.69	141.47	274.52	200.48	40.238	1516.2	46.754	142.39	499.83	216.59	217.39	721.65	-122.4	66.471	1648.8	116.56	-55.388	1026.2	100.12	194.79	893.04	-195.12	231.58	38.672	132.17	148.6	864.18	372.09	183.3	370.53	144.32	143.58	1038.4	-92.352	165.43	279.26	135.01	222.12	1257.4	34.979	-62.762	1292.9	47.91	172.89	1430.4	41.57	-32.467	1425	178.97	-60.827	1019	22.651	87.91	70.023	167.66	63.798	1138.5	341.54	149.54	704.81	-140.84	173.34	520.44	-133.27	93.547	1292.6	302.7	84.471	320.89	-74.314	107.17	1473.1	-123.03	12.337	257.14	-77.329	33.694	34.81	115.21	235.47	1695.8	7.4132	143.69	618.4	225.54	-178.75	200.98	-61.355	151.53	380.43	-74.426	-70.558	186.39	-39.484	38.743	1118.9	266.63	130.07	808.06	245.34	63.309	347.02	-142.23	238.78	1696.5	84.118	120.71	1463.4	203.41	208.11	517.74	-6.9856	140.41	710.25	236.54	147.25	514.92	85.15	-114.52	199.67	-115.47	-83.104	93.427	-155.5	208.62	880.45	326.15	133.23	797.01	-142.74	2.1638	46.273	-108.97	-33.864	68.669	-83.186
588	2.94	222.24	845.49	382.38	177.09	616.28	-136.31	207.86	718.83	204.23	63.186	1644.9	-24.379	126.59	870.88	-236.93	202.05	839.95	-246.96	69.364	1301.5	-217.95	80.466	997.47	-250.71	45.043	1145.9	-243.71	147.48	188.31	128.02	109.64	994.79	369.36	284.72	31.117	157.91	164.46	1046.9	192.87	14.478	1134.3	-172.38	176.42	25.421	208.7	141.94	274.45	200.54	45.123	1516.8	47.232	143.6	499.82	216.67	224.11	723.68	-122.34	71.448	1649.3	116.96	-50.874	1026.8	100.6	195.06	892.1	-194	231.57	38.671	132.15	158.1	865.47	372.5	184.08	370.36	144.42	148.15	1039	-92.014	165.96	279.12	135.09	226.83	1257.8	35.206	-57.976	1293.5	48.66	177.75	1430.9	41.872	-27.36	1425.7	179.64	-56.419	1019.7	23.067	87.862	70.031	167.6	71.021	1139.2	342.5	156.22	706.21	-140.58	181.86	522.19	-132.89	99.9	1293.4	303.17	95.967	321.15	-74.041	111.69	1473.5	-122.7	24.737	256.38	-76.829	33.627	34.823	115.17	240.37	1696.2	7.6693	145.78	618.46	225.7	-165.57	196.92	-60.064	162.24	381.65	-74.343	-56.938	184.32	-38.692	45.581	1119.4	267.76	133.62	808.26	245.5	73.898	347.37	-141.65	243.74	1697	84.369	125.85	1464.1	203.68	217.15	519.73	-6.8932	143.36	710.32	236.78	148.49	514.92	85.185	-101.46	197.09	-114.44	-68.09	91.702	-154.96	217.59	882.18	326.04	139.1	798.26	-142.45	18.306	45.895	-109.05	-18.042	67.678	-82.972
589	2.945	232.02	847.46	382.32	184.65	617.83	-136.06	210.56	718.43	204.34	68.039	1645.4	-23.984	126.71	870.65	-235.83	201.82	838.9	-245.77	72.949	1301.8	-217.28	81.709	997.65	-249.57	47.603	1146.4	-242.6	147.73	188.2	128.06	118.19	995.73	370.07	284.7	31.093	157.94	168.8	1047.3	193.39	17.074	1135.2	-171.23	176.37	25.396	208.72	142.39	274.38	200.6	50	1517.3	47.694	144.77	499.8	216.74	230.77	725.66	-122.27	76.431	1649.9	117.34	-46.361	1027.4	101.03	195.35	891.21	-192.88	231.56	38.669	132.14	167.61	866.78	372.89	184.83	370.19	144.51	152.77	1039.6	-91.649	166.47	278.98	135.15	231.53	1258.2	35.434	-53.184	1294.1	49.381	182.6	1431.3	42.158	-22.256	1426.3	180.29	-52.012	1020.3	23.446	87.813	70.033	167.54	78.226	1139.9	343.45	162.86	707.58	-140.34	190.25	523.89	-132.51	106.24	1294.2	303.63	107.48	321.31	-73.754	116.21	1473.9	-122.38	37.225	255.49	-76.321	33.554	34.833	115.14	245.27	1696.7	7.9019	147.83	618.52	225.86	-152.19	192.55	-58.807	172.9	382.83	-74.24	-43.161	182.05	-37.899	52.424	1119.9	268.88	137.15	808.44	245.65	84.475	347.58	-141.05	248.71	1697.4	84.596	130.98	1464.7	203.93	226.05	521.71	-6.8003	146.25	710.44	237.07	149.72	514.91	85.222	-88.218	194.25	-113.43	-52.809	89.771	-154.4	226.57	883.93	325.91	144.93	799.48	-142.19	34.709	45.435	-109.06	-1.9805	66.563	-82.706
590	2.95	241.79	849.45	382.22	192.13	619.36	-135.82	213.26	718.01	204.46	72.893	1645.9	-23.609	126.86	870.46	-234.74	201.63	837.89	-244.57	76.517	1302.2	-216.63	82.961	997.84	-248.44	50.146	1146.8	-241.53	147.96	188.1	128.11	126.72	996.69	370.75	284.68	31.072	157.96	173.11	1047.7	193.93	19.668	1136	-170.11	176.32	25.371	208.74	142.83	274.31	200.66	54.87	1517.8	48.14	145.9	499.79	216.82	237.38	727.6	-122.19	81.419	1650.4	117.7	-41.849	1028	101.43	195.66	890.37	-191.77	231.54	38.665	132.13	177.13	868.13	373.26	185.57	370.04	144.61	157.43	1040.3	-91.26	166.98	278.85	135.22	236.21	1258.6	35.665	-48.386	1294.6	50.073	187.43	1431.8	42.427	-17.158	1426.8	180.93	-47.602	1021	23.791	87.764	70.031	167.47	85.412	1140.6	344.39	169.45	708.94	-140.11	198.51	525.54	-132.13	112.55	1295	304.08	118.99	321.39	-73.448	120.73	1474.3	-122.09	49.798	254.45	-75.805	33.477	34.842	115.12	250.18	1697.1	8.1114	149.83	618.57	226	-138.6	187.89	-57.582	183.48	383.97	-74.112	-29.227	179.6	-37.108	59.269	1120.4	269.99	140.65	808.61	245.79	95.045	347.66	-140.45	253.69	1697.9	84.799	136.1	1465.4	204.15	234.81	523.67	-6.7042	149.09	710.6	237.42	150.94	514.91	85.26	-74.792	191.15	-112.42	-37.266	87.656	-153.82	235.54	885.69	325.77	150.7	800.67	-141.95	51.365	44.907	-109.01	14.316	65.341	-82.399
591	2.955	251.55	851.45	382.09	199.52	620.87	-135.58	215.96	717.57	204.58	77.747	1646.3	-23.251	127.04	870.3	-233.67	201.45	836.92	-243.38	80.065	1302.5	-216.02	84.224	998.03	-247.34	52.675	1147.2	-240.49	148.19	188	128.16	135.24	997.64	371.41	284.66	31.055	157.99	177.38	1048.1	194.5	22.262	1136.8	-169.02	176.27	25.348	208.75	143.26	274.25	200.73	59.733	1518.3	48.567	147	499.78	216.91	243.91	729.5	-122.11	86.411	1650.8	118.05	-37.339	1028.6	101.79	195.98	889.57	-190.68	231.52	38.658	132.13	186.65	869.5	373.62	186.29	369.89	144.7	162.12	1040.9	-90.846	167.49	278.73	135.27	240.89	1259	35.9	-43.583	1295.2	50.733	192.25	1432.2	42.681	-12.064	1427.4	181.55	-43.186	1021.6	24.106	87.718	70.027	167.4	92.577	1141.3	345.31	175.99	710.27	-139.9	206.63	527.12	-131.76	118.84	1295.8	304.52	130.51	321.4	-73.122	125.25	1474.7	-121.81	62.454	253.28	-75.281	33.399	34.851	115.1	255.09	1697.5	8.2988	151.81	618.62	226.13	-124.78	182.96	-56.39	193.98	385.08	-73.952	-15.137	176.97	-36.322	66.115	1120.8	271.07	144.14	808.77	245.92	105.61	347.59	-139.83	258.68	1698.3	84.98	141.21	1466	204.36	243.43	525.61	-6.6025	151.87	710.81	237.82	152.15	514.9	85.299	-61.182	187.81	-111.43	-21.466	85.378	-153.23	244.5	887.48	325.6	156.39	801.82	-141.73	68.262	44.328	-108.91	30.842	64.03	-82.063
592	2.96	261.3	853.46	381.93	206.81	622.34	-135.34	218.66	717.13	204.7	82.602	1646.7	-22.912	127.25	870.18	-232.61	201.32	835.99	-242.19	83.591	1302.8	-215.44	85.5	998.24	-246.26	55.191	1147.7	-239.48	148.42	187.9	128.21	143.74	998.59	372.06	284.64	31.041	158.02	181.65	1048.4	195.08	24.858	1137.6	-167.95	176.22	25.327	208.77	143.69	274.19	200.8	64.592	1518.7	48.974	148.08	499.78	216.99	250.35	731.35	-122.02	91.406	1651.3	118.37	-32.831	1029.1	102.11	196.34	888.82	-189.6	231.48	38.647	132.13	196.16	870.9	373.96	187	369.75	144.79	166.83	1041.4	-90.41	167.99	278.62	135.32	245.55	1259.3	36.139	-38.777	1295.6	51.359	197.05	1432.6	42.92	-6.9755	1427.9	182.16	-38.76	1022.1	24.395	87.675	70.024	167.34	99.721	1142	346.21	182.46	711.56	-139.7	214.63	528.65	-131.38	125.1	1296.5	304.95	142.02	321.32	-72.771	129.77	1475.1	-121.55	75.192	252	-74.748	33.323	34.86	115.09	260.02	1697.8	8.4648	153.77	618.67	226.26	-110.74	177.76	-55.228	204.39	386.14	-73.757	-0.88869	174.19	-35.542	72.958	1121.3	272.15	147.61	808.9	246.04	116.18	347.37	-139.2	263.67	1698.6	85.138	146.32	1466.5	204.55	251.89	527.52	-6.494	154.6	711.06	238.28	153.35	514.9	85.341	-47.385	184.25	-110.45	-5.415	82.956	-152.63	253.46	889.27	325.41	161.98	802.93	-141.51	85.39	43.715	-108.78	47.593	62.647	-81.709
